<?xml version="1.0" standalone="no"?><!DOCTYPE svg PUBLIC "-//W3C//DTD SVG 1.1//EN" "http://www.w3.org/Graphics/SVG/1.1/DTD/svg11.dtd"><svg t="1614957806464" class="icon" viewBox="0 0 1024 1024" version="1.1" xmlns="http://www.w3.org/2000/svg" p-id="2135" xmlns:xlink="http://www.w3.org/1999/xlink" width="200" height="200"><defs><style type="text/css"></style></defs><path d="M864 192h-192V128c0-32-32-64-64-64h-192c-32 0-64 32-64 64v64H160C128 192 96 224 96 256v64c0 32 32 64 64 64v512c0 32 32 64 64 64h576c32 0 64-32 64-64V384c32 0 64-32 64-64V256c0-32-32-64-64-64z m-64 704H224V384h576v512zM416 128h192v64h-192V128z m448 192H160V256h704v64z m-512 128h64v384h-64V448z m128 0h64v384h-64V448z m128 0h64v384h-64V448z" p-id="2136"></path></svg>