<?xml version="1.0" standalone="no"?><!DOCTYPE svg PUBLIC "-//W3C//DTD SVG 1.1//EN" "http://www.w3.org/Graphics/SVG/1.1/DTD/svg11.dtd"><svg t="1614957823448" class="icon" viewBox="0 0 1024 1024" version="1.1" xmlns="http://www.w3.org/2000/svg" p-id="2885" xmlns:xlink="http://www.w3.org/1999/xlink" width="200" height="200"><defs><style type="text/css"></style></defs><path d="M861.635303 523.955265v323.584171c0 17.702782-14.406255 32.109037-32.109037 32.109037H173.067709c-17.702782 0-32.109037-14.406255-32.109037-32.109037V200.36039c0-17.702782 14.406255-32.109037 32.109037-32.109036h328.229279v-74.921087H173.067709c-59.102034 0-107.030123 47.928089-107.030123 107.030123v647.189749c0 59.102034 47.928089 107.030123 107.030123 107.030123h656.458557c59.102034 0 107.030123-47.928089 107.030123-107.030123V523.955265h-74.921086z" fill="#3E3A39" p-id="2886"></path><path d="M580.413655 512.984677a37.481949 37.481949 0 0 1-52.979911 0 37.481949 37.481949 0 0 1 0-52.979911l325.425089-325.425089a37.481949 37.481949 0 0 1 52.979911 0 37.481949 37.481949 0 0 1 0 52.979911L580.413655 512.984677zM404.969877 733.370404a37.460543 37.460543 0 1 1 0-74.921087h192.654222a37.460543 37.460543 0 1 1 0 74.921087h-192.654222z" fill="#3E3A39" p-id="2887"></path></svg>